<?xml version="1.0" encoding="UTF-8"?>
<svg width="299px" height="192px" viewBox="0 0 299 192" version="1.1" xmlns="http://www.w3.org/2000/svg" xmlns:xlink="http://www.w3.org/1999/xlink">
    <!-- Generator: Sketch 48.2 (47327) - http://www.bohemiancoding.com/sketch -->
    <title>Slice 1</title>
    <desc>Created with Sketch.</desc>
    <defs></defs>
    <g id="Page-1" stroke="none" stroke-width="1" fill="none" fill-rule="evenodd">
        <polygon id="Path" stroke="#323113" fill="#55241F" points="6.40093147 1 105.809609 20.6992187 123.329992 47.109375 138.907982 54.1484375 138.907982 37.2226562 131.676305 37.2226562 146.342865 27.5742187 158.182496 54.1484375 169.523082 54.1484375 197.607094 20.6992187 299 1 267.061085 27.5742187 299 27.5742187 260.678083 43.0039062 286.488002 58.2929687 250.239963 54.1484375 267.061085 77.6640625 164.50872 105.683594 197.607094 149.585937 146.342865 190.746094 105.809609 149.585938 135.70154 105.683594 33.7528109 77.6640625 49.9762735 54.1484375 15.270196 58.2929688 42.7177009 43.0039062 0 27.5742188 37.4164626 27.5742188"></polygon>
        <polygon id="Path-2" stroke="#55241F" stroke-width="4" fill="#F8F6F6" points="150.330264 24 166 56.3590676 150.330264 83.8046875 136.864271 56.3590676 136.864271 36.3315922 126 36.3315922"></polygon>
        <polygon id="Path-4" fill="#F8F6F6" points="138.727081 111 113 148.939867 146.767617 185 190.868834 148.939867 162.302562 111"></polygon>
        <path d="" id="Path-5" stroke="#979797"></path>
        <polygon id="Path-6" fill="#55241F" points="137 97.5683813 144.380688 171.568381 167 97.5683813"></polygon>
    </g>
</svg>